<?xml version="1.0" encoding="utf-8"?>
<!-- Generator: Adobe Illustrator 22.0.0, SVG Export Plug-In . SVG Version: 6.00 Build 0)  -->
<svg version="1.1" id="Capa_1" xmlns="http://www.w3.org/2000/svg" xmlns:xlink="http://www.w3.org/1999/xlink" x="0px" y="0px"
	 viewBox="0 0 612 792" style="enable-background:new 0 0 612 792;" xml:space="preserve">
<style type="text/css">
	.st0{fill:none;stroke:#000000;stroke-width:1.4849;stroke-miterlimit:10;}
	.st1{fill:#555550;}
	.st2{fill:#6AC3C7;}
	.st3{fill:#F8FAFA;}
	.st4{fill:none;stroke:#000000;stroke-miterlimit:10;}
	.st5{fill:#FDFDFD;}
	.st6{fill:none;}
</style>
<line class="st0" x1="66.2" y1="495.9" x2="74.3" y2="492.5"/>
<line class="st0" x1="74.3" y1="492.5" x2="72.3" y2="489.2"/>
<polyline class="st1" points="78.3,501.9 72.3,508 33.3,435.4 136.1,444.2 102.5,283 168.3,289.7 176.4,297.1 119.3,293.1 
	148.8,463.7 56.2,456.9 79,502.6 "/>
<g>
	<ellipse class="st2" cx="89.8" cy="501.3" rx="34.3" ry="13.4"/>
	<ellipse class="st3" cx="89.8" cy="499.9" rx="14.8" ry="4.7"/>
</g>
<line class="st4" x1="103" y1="293.8" x2="102.4" y2="293.8"/>
<circle class="st2" cx="85.7" cy="360.9" r="59.8"/>
<circle class="st5" cx="85.7" cy="366.3" r="23.5"/>
<polygon class="st2" points="137.4,390.4 88.4,502.6 34,390.4 34,391.1 136.8,392.5 "/>
<g>
	<path d="M251.6,307.8v113.5v16.8L183.8,369h-0.7v45l0,0h-30.2l0,0V300.5c0,0,0,0,0.7,0l67.8,56.4h0.7v-41l0,0l-8.1-7.4v-0.7H251.6
		L251.6,307.8z"/>
	<path d="M312.7,307.8L350.3,414v0.7h-29.5l0,0l-2.7-7.4l0,0h-34.9c0,0-18.8,0-18.8-0.7l29.5-29.5c0,0,0,0,0.7,0H308c0,0,0,0,0-0.7
		l-10.1-29.5h-0.7l-26.2,67.8l0,0h-28.9c10.7-29.5-11.4,29.5-11.4,29.5l49.7-130.3l0,0l-4.7-5.4v-0.7H312.7L312.7,307.8z"/>
	<path d="M392.6,307.8c15.4,0,26.2,5.4,32.2,15.4c2.7,4.7,4,9.4,4,14.1c0,5.4-2,10.7-6,16.1c0,0,0,0,0,0.7
		c11.4,6,16.1,15.4,14.8,28.2c-2.7,18.8-19.5,32.9-39,32.9H347l0,0v-99.4l0,0l-6.7-7.4v-0.7H392.6z M392.6,346.1
		c5.4,0,7.4-2,7.4-5.4c0-4-2.7-5.4-7.4-5.4h-14.8l0,0v10.7l0,0H392.6z M400.7,383.7c5.4,0,7.4-2.7,7.4-7.4c0-4-3.4-7.4-8.1-7.4
		h-22.2l0,0v14.8l0,0C377.9,383.7,400.7,383.7,400.7,383.7z"/>
	<path d="M475.9,307.8V414l0,0h-29.5l0,0v-98.1l0,0l-8.1-7.4v-0.7H475.9L475.9,307.8z"/>
	<path d="M518.9,307.8v37.6l0,0h37.6l0,0v-37.6l0,0H586l0,0V414l0,0h-28.9l0,0v-37.6l0,0h-37.6l0,0V414l0,0H490l0,0v-98.1l0,0
		l-8.7-7.4v-0.7H518.9L518.9,307.8z"/>
</g>
<g>
	<circle class="st2" cx="189.8" cy="205.1" r="32.9"/>
	<circle class="st5" cx="189.8" cy="208.4" r="12.8"/>
	<line class="st6" x1="218" y1="222.6" x2="160.9" y2="221.9"/>
	<polyline class="st2" points="160.9,221.9 191.2,283.7 218,221.9 	"/>
</g>
<g>
	<ellipse class="st2" cx="191.2" cy="297.1" rx="31.6" ry="12.8"/>
	<ellipse class="st3" cx="191.2" cy="296.4" rx="14.1" ry="4"/>
</g>
</svg>
