<?xml version="1.0" encoding="utf-8"?>
<!-- Generator: Adobe Illustrator 22.0.0, SVG Export Plug-In . SVG Version: 6.00 Build 0)  -->
<svg version="1.1" id="Capa_1" xmlns="http://www.w3.org/2000/svg" xmlns:xlink="http://www.w3.org/1999/xlink" x="0px" y="0px"
	 viewBox="0 0 612 792" style="enable-background:new 0 0 612 792;" xml:space="preserve">
<style type="text/css">
	.st0{fill:#555550;}
	.st1{fill:#6AC3C7;}
	.st2{fill:#F8FAFA;}
	.st3{fill:#333331;stroke:#000000;stroke-width:0.2996;stroke-miterlimit:10;}
	.st4{fill:#FDFDFD;}
</style>
<polyline class="st0" points="38.4,82.5 37.1,83.8 29.3,69.1 50,70.8 43.2,38.3 56.6,39.6 58.1,41.1 46.6,40.4 52.5,74.7 33.9,73.4 
	38.4,82.6 "/>
<g>
	<ellipse class="st1" cx="40.6" cy="82.3" rx="7" ry="2.7"/>
	<ellipse class="st2" cx="40.6" cy="82.1" rx="3" ry="0.9"/>
</g>
<line class="st3" x1="51.5" y1="52" x2="51.3" y2="52"/>
<circle class="st1" cx="39.9" cy="54" r="12.1"/>
<circle class="st4" cx="39.9" cy="55.1" r="4.7"/>
<polygon class="st1" points="50.3,60.1 40.4,82.7 29.4,60 29.4,60.1 50.1,60.4 "/>
<g>
	<path d="M73.3,43.4v22.8c0,0,0,3.4,0,3.4L59.6,55.7c0,0-0.1,0-0.1,0v9c0,0,0,0,0,0h-6c0,0,0,0,0,0V41.9c0,0,0-0.1,0.1,0l13.7,11.4
		c0,0,0.1,0,0.1,0v-8.3c0,0,0,0,0,0l-1.4-1.4c0,0,0-0.1,0-0.1L73.3,43.4C73.3,43.4,73.3,43.4,73.3,43.4z"/>
	<path d="M85.7,43.4l7.6,21.4c0,0,0,0.1,0,0.1h-6c0,0,0,0-0.1,0l-0.5-1.5c0,0,0,0-0.1,0h-7.1c0,0-3.7,0-3.7-0.1l6-6c0,0,0.1,0,0.1,0
		h2.7c0,0,0.1,0,0.1-0.1l-2-5.9c0,0-0.1,0-0.1,0l-5.3,13.6c0,0,0,0,0,0l-5.9,0c2.2-6-2.3,6-2.3,6l10.1-26.3c0,0,0,0,0-0.1l-0.9-0.9
		c0,0,0-0.1,0-0.1L85.7,43.4C85.7,43.4,85.7,43.4,85.7,43.4z"/>
	<path d="M101.8,43.4c3.1,0,5.2,1,6.5,3.1c0.6,0.9,0.9,1.9,0.9,2.8c0,1.1-0.4,2.2-1.2,3.3c0,0,0,0.1,0,0.1c2.3,1.2,3.3,3.1,2.9,5.6
		c-0.6,3.8-4,6.6-7.9,6.6H92.6c0,0-0.1,0-0.1-0.1V44.9c0,0,0,0,0,0l-1.4-1.4c0,0,0-0.1,0-0.1H101.8z M101.8,51c1,0,1.5-0.4,1.5-1.1
		s-0.5-1.1-1.5-1.1h-3c0,0-0.1,0-0.1,0.1V51c0,0,0,0.1,0.1,0.1H101.8z M103.3,58.7c1,0,1.5-0.5,1.5-1.5c0-0.9-0.7-1.5-1.6-1.5
		l-4.5,0c0,0-0.1,0-0.1,0.1v3c0,0,0,0.1,0.1,0.1H103.3z"/>
	<path d="M118.5,43.4v21.4c0,0,0,0.1-0.1,0.1h-6c0,0-0.1,0-0.1-0.1V44.9c0,0,0,0,0,0l-1.4-1.4c0,0,0-0.1,0-0.1L118.5,43.4
		C118.5,43.4,118.5,43.4,118.5,43.4z"/>
	<path d="M127.2,43.4V51c0,0,0,0.1,0.1,0.1h7.6c0,0,0.1,0,0.1-0.1v-7.6c0,0,0-0.1,0.1-0.1h6c0,0,0.1,0,0.1,0.1v21.4
		c0,0,0,0.1-0.1,0.1h-6c0,0-0.1,0-0.1-0.1v-7.6c0,0,0-0.1-0.1-0.1h-7.6c0,0-0.1,0-0.1,0.1v7.6c0,0,0,0.1-0.1,0.1h-6
		c0,0-0.1,0-0.1-0.1V44.9c0,0,0,0,0,0l-1.4-1.4c0,0,0-0.1,0-0.1L127.2,43.4C127.2,43.4,127.2,43.4,127.2,43.4z"/>
</g>
<g>
	<circle class="st1" cx="60.8" cy="22.6" r="6.7"/>
	<circle class="st4" cx="60.8" cy="23.2" r="2.6"/>
	<line class="st1" x1="66.5" y1="26.2" x2="55" y2="26"/>
	<polyline class="st1" points="55,25.9 61.1,38.5 66.6,26 	"/>
</g>
<g>
	<ellipse class="st1" cx="61.1" cy="41.2" rx="6.4" ry="2.5"/>
	<ellipse class="st2" cx="61.1" cy="41" rx="2.8" ry="0.9"/>
</g>
</svg>
